<?xml version="1.0" encoding="utf-8"?>
<!-- Generator: Adobe Illustrator 27.5.0, SVG Export Plug-In . SVG Version: 6.00 Build 0)  -->
<svg version="1.1" id="Layer_1" xmlns="http://www.w3.org/2000/svg" xmlns:xlink="http://www.w3.org/1999/xlink" x="0px" y="0px"
	 viewBox="0 0 9.07 25" style="enable-background:new 0 0 9.07 25;" xml:space="preserve">
<style type="text/css">
	.st0{fill:#FFFFFF;}
	.st1{fill:#E41395;}
</style>
<path class="st0" d="M6.99,9.3c0,2.39,0,4.78,0,7.18c0,0.12,0.03,0.19,0.14,0.27c0.92,0.64,1.52,1.5,1.8,2.58
	c0.5,1.92-0.32,3.94-2.01,4.99c-0.51,0.32-1.06,0.53-1.65,0.63c-0.51,0.08-1.02,0.08-1.54-0.02C3,24.8,2.34,24.51,1.77,24.06
	C0.54,23.07-0.07,21.78,0,20.2c0.04-0.89,0.34-1.69,0.87-2.41c0.32-0.44,0.7-0.81,1.15-1.11c0.03-0.02,0.05-0.08,0.05-0.11
	c0-1.73,0-3.46,0-5.19c0-1.98,0-3.96,0-5.94c0-1.01,0-2.02,0.01-3.03c0-0.77,0.33-1.38,0.92-1.84c0.76-0.59,1.6-0.72,2.48-0.34
	c0.77,0.32,1.26,0.91,1.44,1.73C7,2.22,6.99,2.51,6.99,2.79c0.01,1.09,0,2.17,0,3.26C6.99,7.13,6.99,8.22,6.99,9.3z M6.18,9.67
	L6.18,9.67c0-1.18,0-2.37,0-3.55c0-1.19,0-2.39-0.01-3.58c0-0.19-0.01-0.38-0.06-0.56c-0.25-0.83-1.1-1.32-1.95-1.12
	C3.46,1.03,2.9,1.6,2.9,2.39c0,0.42-0.01,0.85-0.01,1.27c0,2.53,0,5.06,0,7.59c0,1.84,0,3.68,0,5.52c0,0.22-0.08,0.36-0.26,0.47
	c-0.96,0.58-1.55,1.43-1.76,2.52c-0.23,1.22,0.08,2.31,0.92,3.23c0.73,0.8,1.66,1.19,2.75,1.2c0.75,0.01,1.43-0.21,2.05-0.62
	C7.47,23,8,22.19,8.2,21.17c0.2-1.03-0.02-1.98-0.6-2.85c-0.3-0.43-0.68-0.79-1.14-1.05c-0.21-0.12-0.28-0.29-0.28-0.52
	C6.19,14.38,6.18,12.02,6.18,9.67z"/>
<path class="st1" d="M3.44,13.29c0-1.32,0-2.64,0-3.97C3.44,8.86,3.63,8.48,4,8.2c0.3-0.22,0.78-0.22,1.09,0.02
	C5.45,8.49,5.63,8.86,5.64,9.3c0.01,1.07,0,2.15,0,3.22c0,1.61,0,3.21,0,4.82c0,0.1,0.05,0.12,0.12,0.15
	c0.91,0.4,1.55,1.06,1.82,2.02c0.38,1.34,0,2.47-1.05,3.37c-1.03,0.88-2.59,0.94-3.72,0.19c-0.56-0.38-0.97-0.87-1.22-1.49
	c-0.32-0.83-0.31-1.66,0.06-2.47c0.35-0.78,0.93-1.32,1.72-1.64c0.06-0.03,0.07-0.06,0.07-0.12C3.44,16,3.44,14.64,3.44,13.29
	L3.44,13.29z"/>
</svg>
